<?xml version="1.0" encoding="UTF-8" standalone="no"?>
<svg
   xmlns:dc="http://purl.org/dc/elements/1.1/"
   xmlns:cc="http://creativecommons.org/ns#"
   xmlns:rdf="http://www.w3.org/1999/02/22-rdf-syntax-ns#"
   xmlns:svg="http://www.w3.org/2000/svg"
   xmlns="http://www.w3.org/2000/svg"
   xmlns:xlink="http://www.w3.org/1999/xlink"
   xmlns:sodipodi="http://sodipodi.sourceforge.net/DTD/sodipodi-0.dtd"
   xmlns:inkscape="http://www.inkscape.org/namespaces/inkscape"
   sodipodi:docname="logo.svg"
   inkscape:version="1.0 (4035a4fb49, 2020-05-01)"
   xml:space="preserve"
   enable-background="new 0 0 340.155 114.127"
   viewBox="0 0 340.157 85.039996"
   height="90.709335"
   width="362.83414"
   y="0px"
   x="0px"
   id="Řŕđ_1"
   version="1.1"><metadata
   id="metadata3099"><rdf:RDF><cc:Work
       rdf:about=""><dc:format>image/svg+xml</dc:format><dc:type
         rdf:resource="http://purl.org/dc/dcmitype/StillImage" /><dc:title></dc:title></cc:Work></rdf:RDF></metadata><defs
   id="defs3097"><linearGradient
     id="linearGradient3955"><stop
       id="stop3957"
       offset="0"
       style="stop-color:#969696;stop-opacity:1;" /><stop
       style="stop-color:#c8c8c8;stop-opacity:1;"
       offset="0.25"
       id="stop3965" /><stop
       style="stop-color:#afafaf;stop-opacity:1;"
       offset="0.5"
       id="stop3963" /><stop
       id="stop3967"
       offset="0.75"
       style="stop-color:#c8c8c8;stop-opacity:1;" /><stop
       id="stop3959"
       offset="1"
       style="stop-color:#fafafa;stop-opacity:1;" /></linearGradient><linearGradient
     gradientUnits="userSpaceOnUse"
     y2="205.77519"
     x2="223.51901"
     y1="205.77519"
     x1="154.68164"
     id="linearGradient3961-4"
     xlink:href="#linearGradient3955-2"
     inkscape:collect="always" /><linearGradient
     id="linearGradient3955-2"><stop
       id="stop3957-3"
       offset="0"
       style="stop-color:#969696;stop-opacity:1;" /><stop
       style="stop-color:#c8c8c8;stop-opacity:1;"
       offset="0.25"
       id="stop3965-2" /><stop
       style="stop-color:#afafaf;stop-opacity:1;"
       offset="0.5"
       id="stop3963-2" /><stop
       id="stop3967-1"
       offset="0.75"
       style="stop-color:#c8c8c8;stop-opacity:1;" /><stop
       id="stop3959-6"
       offset="1"
       style="stop-color:#fafafa;stop-opacity:1;" /></linearGradient><linearGradient
     gradientUnits="userSpaceOnUse"
     y2="205.77519"
     x2="223.51901"
     y1="205.77519"
     x1="154.68164"
     id="linearGradient3961-5"
     xlink:href="#linearGradient3955-4"
     inkscape:collect="always" /><linearGradient
     id="linearGradient3955-4"><stop
       id="stop3957-31"
       offset="0"
       style="stop-color:#969696;stop-opacity:1;" /><stop
       style="stop-color:#c8c8c8;stop-opacity:1;"
       offset="0.25"
       id="stop3965-23" /><stop
       style="stop-color:#afafaf;stop-opacity:1;"
       offset="0.5"
       id="stop3963-3" /><stop
       id="stop3967-4"
       offset="0.75"
       style="stop-color:#c8c8c8;stop-opacity:1;" /><stop
       id="stop3959-1"
       offset="1"
       style="stop-color:#fafafa;stop-opacity:1;" /></linearGradient></defs><sodipodi:namedview
   fit-margin-bottom="0"
   fit-margin-right="0"
   fit-margin-left="0"
   fit-margin-top="0"
   inkscape:document-rotation="0"
   inkscape:current-layer="Řŕđ_1"
   inkscape:window-maximized="1"
   inkscape:window-y="-8"
   inkscape:window-x="3832"
   inkscape:cy="132.52419"
   inkscape:cx="158.9645"
   inkscape:zoom="2"
   inkscape:guide-bbox="true"
   showguides="true"
   showgrid="false"
   id="namedview3095"
   inkscape:window-height="1147"
   inkscape:window-width="1920"
   inkscape:pageshadow="2"
   inkscape:pageopacity="0"
   guidetolerance="10"
   gridtolerance="10"
   objecttolerance="10"
   borderopacity="1"
   bordercolor="#666666"
   pagecolor="#ffffff" />
<rect
   inkscape:export-ydpi="90"
   inkscape:export-xdpi="90"
   inkscape:export-filename="C:\Users\jandl\Desktop\K-samostatne.png"
   fill="#0067b2"
   id="rect2985"
   height="85.040001"
   width="85.041"
   y="0"
   x="0" />
<g
   transform="translate(0.002)"
   id="g2987">
	<rect
   id="rect2989"
   height="85.040001"
   width="85.039001"
   fill="#eb6209"
   y="0"
   x="85.038002" />
	<g
   id="g2991">
		<polygon
   id="polygon2993"
   points="160.082,75.906 160.082,23.908 145.3,9.13 145.3,75.906 "
   fill="#ffffff" />
		<polygon
   id="polygon2995"
   points="109.817,9.13 109.817,75.906 95.035,75.906 95.035,23.908 "
   fill="#ffffff" />
		<polygon
   id="polygon2997"
   points="134.943,23.908 145.3,23.908 145.302,9.13 134.951,9.13 127.56,16.52 120.171,9.13 109.813,9.13 109.817,23.908 120.171,23.908 120.171,75.908 134.943,75.908 "
   fill="#fac6a6" />
	</g>
</g>
<g
   transform="translate(0.002)"
   id="g2999">
	<rect
   id="rect3001"
   height="85.040001"
   width="85.039001"
   fill="#d70929"
   y="0"
   x="255.116" />
	<g
   id="g3003">
		<polygon
   id="polygon3005"
   points="302.42,49.748 309.73,42.405 317.047,49.75 317.047,75.91 302.414,75.91 "
   fill="#f191ac" />
		<polygon
   id="polygon3007"
   points="317.217,9.13 317.217,34.889 302.42,49.748 302.42,9.134 "
   fill="#ffffff" />
		<polygon
   id="polygon3009"
   points="286.814,34.886 302.42,34.886 302.42,49.689 286.814,49.678 "
   fill="#f191ac" />
		<rect
   id="rect3011"
   height="66.779999"
   width="14.797"
   fill="#ffffff"
   y="9.1300001"
   x="272.01801" />
	</g>
</g>
<g
   transform="translate(0.002)"
   id="g3013">
	<polygon
   fill="#7cbce8"
   id="polygon3015"
   points="47.794,49.748 55.104,42.405 62.421,49.75 62.421,75.91 47.789,75.91 " />
	<polygon
   fill="#ffffff"
   id="polygon3017"
   points="62.59,9.13 62.59,34.889 47.794,49.748 47.794,9.134 " />
	<polygon
   fill="#7cbce8"
   id="polygon3019"
   points="32.19,34.886 47.794,34.886 47.794,49.689 32.19,49.678 " />
	<rect
   fill="#ffffff"
   id="rect3021"
   height="66.779999"
   width="14.797"
   y="9.1300001"
   x="17.393" />
</g>
<rect
   id="rect3023"
   height="85.040001"
   width="85.039001"
   fill="#ffcf21"
   y="0"
   x="170.07899" />
<rect
   id="rect3025"
   height="14.796"
   width="22.639"
   fill="#ffefb3"
   y="34.886002"
   x="201.27299" />
<polygon
   transform="translate(0.002)"
   id="polygon3027"
   points="201.279,49.668 201.279,75.916 186.477,75.916 186.477,34.909 "
   fill="#ffefb3" />
<polygon
   transform="translate(0.002)"
   id="polygon3029"
   points="201.271,49.672 201.271,9.124 186.477,9.124 186.477,34.932 "
   fill="none" />
<polygon
   transform="translate(0.002)"
   id="polygon3031"
   points="201.274,49.671 201.274,9.124 186.479,9.124 186.479,34.929 "
   fill="#ffffff" />
<g
   transform="translate(0.002)"
   id="g3033">
	<polygon
   id="polygon3035"
   points="223.91,49.667 223.91,75.914 238.713,75.914 238.713,34.907 "
   fill="#ffefb3" />
	<polygon
   id="polygon3037"
   points="223.918,49.67 223.918,9.122 238.713,9.122 238.713,34.93 "
   fill="none" />
	<polygon
   id="polygon3039"
   points="223.915,49.669 223.915,9.122 238.71,9.122 238.71,34.927 "
   fill="#ffffff" />
</g>

</svg>
