<?xml version="1.0" standalone="no"?>
<!DOCTYPE svg PUBLIC "-//W3C//DTD SVG 20010904//EN"
 "http://www.w3.org/TR/2001/REC-SVG-20010904/DTD/svg10.dtd">
<svg version="1.0" xmlns="http://www.w3.org/2000/svg"
 width="1692.000000pt" height="1692.000000pt" viewBox="0 0 1692.000000 1692.000000"
 preserveAspectRatio="xMidYMid meet">
<metadata>
Created by potrace 1.14, written by Peter Selinger 2001-2017
</metadata>
<g transform="translate(0.000000,1692.000000) scale(0.100000,-0.100000)"
fill="#000000" stroke="none">
<path d="M11290 16895 c-43 -46 -51 -132 -57 -575 -3 -223 0 -630 7 -905 13
-554 11 -582 -48 -709 -38 -81 -77 -128 -429 -519 -360 -400 -460 -514 -623
-716 -264 -327 -449 -411 -910 -411 -101 0 -349 -7 -550 -16 -384 -17 -918
-15 -1455 6 -305 11 -420 21 -730 60 -126 16 -374 45 -550 65 -713 79 -1546
219 -1995 336 -246 65 -277 59 -337 -62 -39 -79 -534 -1372 -597 -1561 -149
-444 -273 -982 -325 -1413 -48 -394 -56 -526 -56 -930 0 -317 3 -417 18 -535
51 -407 140 -739 293 -1092 196 -452 235 -592 304 -1083 12 -82 32 -217 46
-300 26 -157 42 -396 30 -458 -9 -48 -30 -67 -72 -67 -20 0 -138 20 -262 45
-125 24 -326 63 -447 85 -245 45 -506 110 -563 139 -75 39 -112 97 -112 176 0
71 -53 100 -97 53 -110 -120 -50 -317 128 -421 82 -48 223 -86 525 -141 675
-124 842 -167 1644 -426 1141 -368 1389 -440 2300 -675 447 -115 718 -188 875
-235 270 -82 506 -186 670 -295 78 -51 191 -160 216 -206 11 -21 10 -22 -32
-15 -24 4 -225 77 -447 162 -964 370 -1378 500 -2947 924 -643 173 -847 225
-2045 519 -924 226 -1014 241 -1125 192 -56 -25 -85 -49 -126 -105 -37 -50
-36 -77 1 -120 54 -61 96 -73 484 -137 455 -75 842 -153 1117 -223 474 -121
783 -198 1164 -291 989 -241 1879 -504 2700 -800 317 -114 477 -168 717 -244
158 -50 263 -108 351 -197 69 -70 112 -146 153 -270 19 -60 46 -128 60 -151
71 -123 233 -189 400 -164 159 24 250 95 334 264 102 205 202 289 475 401 270
110 473 170 1240 371 1001 262 1567 398 2195 530 201 42 525 112 720 155 695
154 997 208 1553 275 256 30 376 49 393 60 51 33 43 98 -19 161 -46 45 -94 64
-167 64 -69 0 -266 -26 -455 -60 -94 -17 -478 -83 -855 -146 -377 -62 -883
-154 -1125 -203 -1483 -302 -1587 -324 -1960 -417 -347 -87 -604 -163 -1124
-335 -266 -88 -485 -158 -487 -156 -7 6 98 51 246 105 197 72 449 154 940 306
619 192 770 244 1520 526 223 84 513 192 645 240 132 48 330 122 440 164 435
167 718 221 1430 276 442 34 603 80 754 216 56 50 66 87 33 117 -26 23 -32 22
-122 -23 -185 -93 -331 -124 -691 -145 -561 -33 -934 -77 -1443 -170 -132 -24
-244 -41 -249 -38 -13 8 -2 95 17 131 24 47 236 331 404 542 179 224 660 806
740 895 133 147 331 300 497 383 44 22 175 78 290 125 470 191 1034 447 1088
495 11 10 17 30 17 58 0 53 19 38 -335 265 -571 368 -855 582 -1375 1038 -812
711 -1508 1481 -2012 2226 -230 338 -323 508 -388 704 -54 163 -62 214 -132
871 -73 691 -81 874 -40 992 52 151 136 239 344 362 373 221 699 451 1203 848
237 186 317 280 319 375 1 37 -4 49 -27 69 -24 20 -39 24 -95 24 -66 1 -107 4
-412 35 -251 25 -396 60 -612 146 -145 58 -404 190 -478 245 -36 26 -138 119
-226 206 -160 156 -162 158 -206 158 -35 0 -50 -6 -68 -25z m-92 -2816 c83
-41 151 -171 198 -379 23 -106 74 -488 94 -700 35 -389 -21 -964 -140 -1445
-52 -212 -98 -355 -177 -555 -171 -433 -347 -692 -603 -884 -131 -99 -364
-216 -430 -216 -10 0 -68 34 -131 76 -197 132 -368 207 -578 254 -111 25 -126
32 -146 69 -41 80 -44 567 -6 861 81 618 323 1240 719 1845 256 392 697 906
872 1017 123 78 241 98 328 57z m-7245 -912 c231 -301 412 -499 647 -712 809
-731 1486 -1106 2291 -1269 373 -76 535 -90 1204 -105 446 -11 464 -13 578
-74 82 -43 168 -138 216 -240 49 -103 62 -159 63 -264 0 -171 -50 -242 -236
-335 -162 -81 -269 -153 -375 -253 -251 -240 -393 -580 -394 -945 0 -298 80
-514 287 -773 93 -117 140 -201 154 -277 5 -25 5 -259 1 -520 -8 -465 -3 -596
22 -627 20 -24 63 -15 96 20 75 80 448 574 606 804 121 175 214 244 375 278
230 49 331 87 457 169 251 166 423 421 512 761 20 76 27 132 31 235 5 148 -6
223 -59 430 -16 63 -29 134 -29 158 0 89 46 145 172 208 191 96 397 98 604 4
97 -44 137 -70 434 -290 550 -407 733 -521 1095 -681 647 -286 1639 -545 2295
-600 80 -7 151 -17 158 -22 20 -15 10 -58 -18 -78 -42 -31 -274 -127 -444
-184 -597 -199 -1380 -355 -2456 -490 -740 -92 -923 -150 -1375 -430 -215
-133 -254 -149 -365 -148 -94 1 -124 10 -306 92 -223 101 -394 137 -612 128
-162 -6 -275 -34 -419 -102 -323 -152 -510 -403 -594 -795 -19 -87 -23 -135
-23 -285 0 -167 2 -186 27 -268 45 -146 102 -247 209 -367 92 -105 90 -96 89
-457 -2 -298 -1 -313 18 -332 20 -20 19 -20 -37 -62 -118 -88 -216 -175 -275
-243 -33 -39 -68 -71 -76 -71 -17 0 -26 28 -46 152 -31 190 -95 315 -234 454
-113 112 -223 183 -406 258 -262 108 -449 153 -1087 261 -504 86 -814 145
-1282 246 -479 103 -928 204 -964 215 -45 15 -89 54 -113 100 -31 61 -44 233
-30 386 26 274 99 434 214 472 21 7 125 13 264 15 266 4 411 27 608 96 127 45
242 45 378 -1 34 -11 179 -69 322 -129 261 -107 451 -175 577 -204 163 -38
238 -104 345 -306 39 -74 121 -220 183 -325 61 -104 145 -257 186 -340 42 -82
84 -164 95 -181 38 -62 117 -68 139 -10 5 15 5 104 0 228 -25 550 -3 1026 53
1161 9 19 46 80 83 134 130 189 219 409 245 600 23 173 -3 431 -61 613 -34
104 -114 260 -178 346 -159 214 -424 401 -657 466 -71 20 -104 22 -300 22
-189 0 -245 -4 -393 -27 -304 -47 -423 -35 -612 64 -248 129 -799 612 -1113
973 -104 119 -247 308 -306 403 -77 125 -289 525 -359 678 -210 459 -345 899
-387 1260 -17 151 -20 513 -5 715 21 278 59 380 141 380 24 0 44 -21 152 -163z
m-566 -1099 c51 -47 90 -180 118 -398 9 -68 29 -192 45 -275 75 -387 76 -480
10 -1000 -81 -639 -85 -687 -85 -1150 0 -589 35 -880 140 -1158 95 -252 249
-419 469 -507 253 -102 615 -102 859 0 217 90 376 248 501 497 55 110 96 160
154 185 51 23 89 17 133 -19 48 -41 52 -62 30 -171 -11 -53 -29 -185 -41 -292
-23 -218 -44 -339 -67 -384 -57 -113 -184 -222 -357 -307 -275 -134 -564 -131
-916 8 -546 215 -1073 636 -1317 1051 -133 225 -204 450 -260 812 -46 303 -43
853 7 1300 49 429 121 757 299 1351 126 421 164 500 229 484 15 -3 37 -16 49
-27z m10183 -4628 c26 -26 25 -45 -5 -131 -40 -115 -136 -288 -271 -488 -254
-375 -446 -614 -670 -831 -255 -248 -440 -337 -721 -347 -433 -16 -785 160
-982 492 -121 203 -144 355 -77 501 26 57 122 166 167 190 l26 13 -18 -97
c-23 -121 -23 -203 -3 -295 67 -301 286 -448 648 -435 113 4 144 9 226 37 193
65 343 165 536 356 72 72 194 209 271 305 236 295 422 487 590 606 57 42 239
143 256 144 4 0 16 -9 27 -20z m-9814 -456 c57 -27 164 -151 216 -250 81 -156
116 -304 139 -586 11 -133 10 -152 -5 -193 -38 -97 -93 -110 -297 -66 -79 16
-160 37 -179 45 -73 31 -108 87 -132 211 -18 95 -18 525 0 619 34 180 144 274
258 220z m7298 -1404 c161 -78 276 -117 385 -131 47 -6 96 -15 109 -20 22 -9
30 -43 13 -53 -12 -8 -642 -201 -876 -270 -105 -30 -336 -94 -513 -141 -518
-138 -779 -224 -1057 -351 l-139 -64 34 36 c107 111 428 403 470 427 48 28 54
29 217 32 141 2 184 7 264 28 235 61 416 174 654 408 72 70 146 137 165 149
57 35 120 24 274 -50z m-5070 -379 c193 -39 511 -93 706 -121 518 -74 773
-130 1003 -220 223 -87 396 -229 474 -390 67 -138 67 -140 -28 -70 -201 149
-391 239 -774 366 -321 106 -442 140 -957 273 -484 125 -837 228 -789 230 8 1
172 -30 365 -68z m4971 -260 c-81 -36 -388 -142 -670 -231 -404 -127 -792
-258 -975 -329 -85 -33 -156 -59 -158 -57 -1 2 77 40 175 84 323 145 610 245
1236 428 199 59 373 110 387 114 44 14 46 9 5 -9z m-2280 -1250 c42 -10 44
-46 7 -125 -42 -90 -86 -121 -168 -121 -55 0 -67 4 -101 31 -64 52 -96 106
-97 164 -1 33 4 54 13 59 15 10 300 3 346 -8z"/>
<path d="M2388 4693 c-29 -33 -29 -59 2 -163 52 -175 108 -318 190 -485 92
-187 195 -346 349 -538 61 -76 111 -140 111 -143 0 -18 -87 14 -350 131 -616
274 -696 321 -987 587 -181 166 -419 363 -462 384 -49 24 -104 23 -131 -1 -20
-18 -22 -27 -18 -86 7 -92 43 -155 138 -238 41 -36 174 -165 295 -286 244
-244 307 -294 538 -423 198 -111 1176 -599 1292 -645 50 -20 153 -54 230 -77
77 -23 224 -68 327 -101 335 -106 566 -158 888 -198 465 -57 1131 -64 1477
-15 60 8 151 18 203 21 107 6 65 16 725 -162 536 -144 989 -249 1622 -375 238
-48 423 -96 423 -110 0 -17 -268 -62 -475 -80 -670 -58 -1774 -64 -2395 -14
-983 79 -1591 209 -2365 506 -568 218 -699 259 -1030 319 -423 77 -551 121
-784 272 -76 50 -103 61 -145 65 -47 4 -55 1 -84 -26 -42 -39 -42 -82 -3 -161
33 -65 70 -101 159 -155 162 -98 321 -156 650 -237 264 -65 321 -84 607 -211
105 -47 258 -113 342 -148 83 -34 154 -68 157 -75 9 -24 -7 -56 -35 -71 -16
-8 -124 -37 -241 -65 -392 -93 -374 -90 -614 -96 -324 -8 -515 13 -782 86
-105 29 -142 9 -142 -74 0 -52 40 -86 132 -113 209 -62 344 -77 718 -76 408 1
622 23 992 104 188 41 363 60 558 60 211 0 301 -9 770 -75 385 -54 702 -92
965 -117 99 -9 337 -13 810 -13 689 0 1061 14 1375 50 321 38 593 67 795 85
354 32 586 58 810 90 219 31 358 37 480 20 112 -16 409 -73 418 -80 16 -14
-91 -49 -343 -115 -414 -108 -609 -162 -839 -232 -519 -158 -804 -227 -1031
-252 -122 -14 -733 -57 -1005 -72 -284 -15 -1050 -6 -1290 15 -418 38 -724 81
-970 136 -71 16 -192 41 -268 55 -76 14 -169 37 -206 50 -105 38 -141 31 -161
-30 -21 -64 20 -127 103 -158 47 -17 514 -121 707 -156 339 -63 384 -70 570
-86 96 -8 256 -24 355 -35 319 -34 512 -43 930 -44 382 -1 428 1 676 27 146
15 293 27 325 25 l59 -3 -185 -62 c-381 -127 -861 -238 -1489 -344 -385 -64
-467 -70 -626 -44 -139 23 -201 20 -230 -10 -39 -38 -34 -88 13 -135 54 -54
94 -62 332 -63 172 -2 251 3 495 31 557 62 650 79 1155 203 852 208 914 229
1320 438 515 265 601 301 1131 460 446 135 534 167 768 282 l184 91 126 -11
c69 -5 231 -13 360 -16 128 -3 239 -9 247 -13 39 -22 -787 -405 -1139 -528
-56 -19 -192 -62 -302 -95 -428 -128 -465 -145 -465 -209 0 -76 71 -97 263
-80 147 13 287 43 535 114 448 130 828 293 1482 638 152 79 297 152 324 161
31 11 81 17 135 17 109 0 258 14 481 45 96 13 351 42 565 65 237 24 403 46
422 55 36 16 49 49 38 92 -17 71 -59 79 -256 53 -85 -11 -217 -27 -294 -35
-77 -8 -198 -22 -270 -30 -179 -20 -385 -30 -385 -19 0 11 76 62 146 97 28 14
217 93 420 175 657 267 790 328 975 451 125 83 212 160 251 220 35 56 35 85 2
118 -35 35 -65 27 -178 -45 -218 -140 -707 -385 -850 -427 -49 -14 -90 -24
-92 -22 -1 1 92 106 208 232 276 301 386 426 550 622 292 351 353 441 365 542
5 46 3 52 -25 80 -59 59 -126 34 -342 -129 -195 -147 -249 -178 -835 -477
-875 -446 -1325 -654 -1820 -838 -554 -206 -1227 -359 -1735 -395 -239 -17
-401 3 -718 90 -201 54 -426 104 -637 140 -184 31 -244 49 -169 50 22 0 143 7
270 15 539 35 790 74 1179 180 110 30 330 84 488 120 716 161 1673 467 2475
791 827 334 1442 661 1850 984 l102 81 0 55 c0 50 -2 55 -27 65 -39 15 -67 1
-252 -120 -348 -227 -614 -368 -1069 -567 -499 -219 -1298 -508 -1762 -639
-404 -114 -1101 -271 -1555 -350 -82 -14 -162 -28 -178 -31 -26 -5 -27 -5 -15
21 19 41 458 345 685 474 308 175 730 342 1050 416 165 39 183 50 183 116 0
57 -24 69 -140 69 -130 0 -211 -14 -343 -56 -237 -77 -495 -190 -874 -384
-374 -191 -625 -343 -851 -513 -226 -171 -373 -251 -523 -286 -195 -46 -743
-94 -1074 -94 -618 -1 -1128 165 -1637 532 -64 46 -134 53 -197 19 -65 -35
-84 -75 -76 -165 7 -88 6 -88 -105 -42 -41 17 -163 55 -272 85 -299 83 -483
149 -775 280 -215 96 -573 278 -647 329 -36 24 -82 53 -103 64 -119 60 -203
22 -203 -91 0 -60 23 -92 127 -179 107 -90 219 -165 368 -246 177 -96 582
-284 819 -379 162 -65 214 -89 199 -95 -80 -30 -450 -38 -618 -14 -342 48
-830 168 -1110 272 -347 128 -516 246 -692 481 -47 63 -124 156 -171 206 -196
209 -429 531 -588 813 -43 76 -92 163 -109 193 -17 30 -46 65 -65 78 -41 28
-110 30 -132 5z m12020 -1555 c-102 -113 -235 -245 -477 -473 -400 -376 -461
-423 -988 -753 -260 -163 -298 -182 -416 -206 -123 -26 -444 -18 -792 19 -77
8 -189 19 -250 25 -60 6 -144 18 -185 28 l-74 17 144 39 c911 245 1863 664
2941 1295 85 49 156 88 158 86 2 -3 -26 -37 -61 -77z"/>
</g>
</svg>
